<svg viewBox="0 0 1200 1200" xml:space="preserve" xmlns="http://www.w3.org/2000/svg">
  <defs>
    <clipPath clipPathUnits="userSpaceOnUse" id="a">
      <path style="fill:none;stroke:#00e400;stroke-width:1px;stroke-linecap:butt;stroke-linejoin:miter;stroke-opacity:1" d="M895.25 569.656c-3.054 9.136-6.684 19.082-19.152 41.428l-21.031 86.159-33.246 102.946 84.375 103.3 171.874-133.422-66.79-203.71-58.331-44.152z"/>
    </clipPath>
    <clipPath clipPathUnits="userSpaceOnUse" id="c">
      <path style="fill:none;stroke:#000;stroke-width:1px;stroke-linecap:butt;stroke-linejoin:miter;stroke-opacity:1" d="m541.436 109.976 384.151 71.558-18.677 259.592-126.312 174.51-19.153 41.428-11.278 68.314-51.36 104.655 53.124 89.015 54.027 146.996-416.963-68.481 110.313-184.82-69.005-155.53-19.32-41.192-111.385-241.209Z"/>
    </clipPath>
    <clipPath clipPathUnits="userSpaceOnUse" id="e">
      <ellipse style="fill:#ff2bff;fill-opacity:1;stroke:#00e400;stroke-width:5.10471;stroke-opacity:1" cx="119.72" cy="-71.651" rx="206.504" ry="202.085"/>
    </clipPath>
    <clipPath clipPathUnits="userSpaceOnUse" id="d">
      <rect style="fill:#ff2bff;fill-opacity:1;stroke:#00e400;stroke-width:5.10471;stroke-opacity:1" width="382.348" height="232.483" x="-76.583" y="1288.726" ry="5.619"/>
    </clipPath>
    <clipPath clipPathUnits="userSpaceOnUse" id="b">
      <path style="fill:none;stroke:#00e400;stroke-width:1px;stroke-linecap:butt;stroke-linejoin:miter;stroke-opacity:1" d="M895.25 569.656c-3.054 9.136-6.684 19.082-19.152 41.428l-21.031 86.159-33.246 102.946 84.375 103.3 171.874-133.422-66.79-203.71-58.331-44.152z"/>
    </clipPath>
  </defs>
  <path style="display:inline;stroke-width:.728479" d="M936.443 765.904c1.579 12.022 5.484 25.417 3.677 36.84-1.724 20.36-12.817 46.764-35.875 34.204-11.508-.106-25.301 2.315-32.8-10.051-4.26-4.715-10.304-4.565-15.705-7.329-8.953-5.658-15.808-17.317-10.407-28.054-17.74-19.074 8.932-43.913 24.242-54.157-5.422-20.145 22.538-31.418 37.205-22.353 10.552-39.39 1.142-77.989-30.682-103.92l19.152-41.428c37.059 42.5 53.51 105.529 35.48 159.537 7.084 3.278 15.414 10.758 15.912 18.023 1.101 7.521-3.51 15.322-10.2 18.688z" clip-path="url(#a)" transform="matrix(1.09174 .49908 .27903 -.9746 -354.072 532.595)"/>
  <g transform="matrix(1.4931 .03177 -.01999 1.04995 -743.756 -595.963)">
    <rect style="display:inline;fill:#4d4d4d;stroke:#000;stroke-width:4.27148;stroke-miterlimit:4;stroke-dasharray:none;stroke-opacity:1" width="36.194" height="85.492" x="1120.108" y="690.714" ry="6.442"/>
    <path style="fill:#b3b3b3;fill-opacity:1;stroke:none;stroke-width:3.15761;stroke-linejoin:miter;stroke-miterlimit:4;stroke-dasharray:none;stroke-opacity:1" d="M1151.765 693.35c1.645 0 2.97 2.138 2.97 4.794v60.925l-.028 4.792h-25.047c-1.645 0-2.969-2.137-2.969-4.792v-65.913l-.087.194z"/>
    <rect style="display:inline;fill:#4d4d4d;stroke:#000;stroke-width:4.04984;stroke-miterlimit:4;stroke-dasharray:none;stroke-opacity:1" width="32.535" height="85.492" x="-1026.038" y="689.896" ry="6.442" transform="scale(-1 1)"/>
    <path style="fill:#b3b3b3;fill-opacity:1;stroke:none;stroke-width:2.99377;stroke-linejoin:miter;stroke-miterlimit:4;stroke-dasharray:none;stroke-opacity:1" d="M997.58 692.532c-1.478 0-2.669 2.139-2.669 4.794v60.925l.025 4.792h22.515c1.479 0 2.67-2.136 2.67-4.792V692.34l.077.193z"/>
    <rect style="fill:#4d4d4d;fill-opacity:1;stroke:#000;stroke-width:4.71493;stroke-linejoin:miter;stroke-miterlimit:0;stroke-dasharray:none;stroke-opacity:1" width="92.18" height="41.86" x="1026.899" y="713.481" ry="0"/>
    <rect style="fill:#b3b3b3;fill-opacity:1;stroke:none;stroke-width:3.32297;stroke-linejoin:miter;stroke-miterlimit:4;stroke-dasharray:none;stroke-opacity:1" width="87.211" height="31.273" x="1029.304" y="715.481" ry="0"/>
  </g>
  <path style="fill:#f9f9f9;fill-opacity:1;stroke:#000;stroke-width:4.99802;stroke-linecap:butt;stroke-linejoin:miter;stroke-miterlimit:4;stroke-dasharray:none;stroke-opacity:1" d="M2581.417 774.203c14.796 51.61 36.944 45.07 54.95 46.476l14.172-.494c5.159.313 43.318-12.526 35.323-39.992-2.136-6.847-7.989-23.32-28.837-22.503-10.466-4.739-27.56-14.43-38.182-5.752-5.627 2.24-13.89-.364-18.928-.286-5.667.084-22.368 6.147-18.498 22.55z" transform="matrix(1.00059 .0213 -.01903 .9998 -1778.137 -641.926)"/>
  <path style="fill:#f9f9f9;stroke:#000;stroke-width:4.64375;stroke-linecap:butt;stroke-linejoin:miter;stroke-miterlimit:4;stroke-dasharray:none;stroke-opacity:1" d="M2595.676 836.921c8.528-12.307 62.432-8.305 76.936 3.278 17.394 19.892-.686 30.442-15.095 29.668-.17-12.318-25.727-18.507-28.542 2.29-11.458 2.569-44.23-16.123-33.299-35.236z" transform="matrix(1.00059 .0213 -.01903 .9998 -1778.137 -641.926)"/>
  <path style="display:inline;stroke-width:.728479" d="M936.443 765.904c1.579 12.022 5.484 25.417 3.677 36.84-1.724 20.36-12.817 46.764-35.875 34.204-11.508-.106-25.301 2.315-32.8-10.051-4.26-4.715-10.304-4.565-15.705-7.329-8.953-5.658-15.808-17.317-10.407-28.054-17.74-19.074 8.932-43.913 24.242-54.157-5.422-20.145 22.538-31.418 37.205-22.353 10.552-39.39 1.142-77.989-30.682-103.92l19.152-41.428c37.059 42.5 53.51 105.529 35.48 159.537 7.084 3.278 15.414 10.758 15.912 18.023 1.101 7.521-3.51 15.322-10.2 18.688z" clip-path="url(#b)" transform="matrix(-.89197 .49908 -.22797 -.9746 1325.15 541.997)"/>
  <g transform="matrix(-1.21988 .03177 .01633 1.04995 631.39 -524.87)">
    <rect style="display:inline;fill:#4d4d4d;stroke:#000;stroke-width:4.27148;stroke-miterlimit:4;stroke-dasharray:none;stroke-opacity:1" width="36.194" height="85.492" x="289.956" y="657.079" ry="6.442"/>
    <path style="fill:#b3b3b3;fill-opacity:1;stroke:none;stroke-width:3.15761;stroke-linejoin:miter;stroke-miterlimit:4;stroke-dasharray:none;stroke-opacity:1" d="M321.613 659.716c1.645 0 2.97 2.138 2.97 4.793v60.926l-.028 4.791h-25.047c-1.645 0-2.97-2.136-2.97-4.791v-65.913l-.086.194z"/>
    <rect style="display:inline;fill:#4d4d4d;stroke:#000;stroke-width:4.04984;stroke-miterlimit:4;stroke-dasharray:none;stroke-opacity:1" width="32.535" height="85.492" x="-195.886" y="656.261" ry="6.442" transform="scale(-1 1)"/>
    <path style="fill:#b3b3b3;fill-opacity:1;stroke:none;stroke-width:2.99377;stroke-linejoin:miter;stroke-miterlimit:4;stroke-dasharray:none;stroke-opacity:1" d="M167.428 658.898c-1.478 0-2.669 2.138-2.669 4.794v60.925l.025 4.792h22.515c1.479 0 2.67-2.137 2.67-4.792v-65.913l.077.194z"/>
    <rect style="fill:#4d4d4d;fill-opacity:1;stroke:#000;stroke-width:4.71493;stroke-linejoin:miter;stroke-miterlimit:0;stroke-dasharray:none;stroke-opacity:1" width="92.18" height="41.86" x="196.748" y="679.847" ry="0"/>
    <rect style="fill:#b3b3b3;fill-opacity:1;stroke:none;stroke-width:3.32297;stroke-linejoin:miter;stroke-miterlimit:4;stroke-dasharray:none;stroke-opacity:1" width="87.211" height="31.273" x="199.152" y="681.847" ry="0"/>
  </g>
  <path style="fill:#f9f9f9;fill-opacity:1;stroke:#000;stroke-width:3.88126;stroke-linecap:butt;stroke-linejoin:miter;stroke-miterlimit:4;stroke-dasharray:none;stroke-opacity:1" d="M390.368 193.388c-11.295 48.88-29.502 43.167-44.2 44.85l-11.593-.18c-4.212.4-35.606-10.921-29.498-36.936 1.64-6.488 6.168-22.112 23.224-21.761 8.482-4.67 22.307-14.135 31.125-6.18 4.635 1.995 11.35-.621 15.469-.648 4.634-.036 18.381 5.338 15.473 20.856z"/>
  <path style="fill:#f9f9f9;stroke:#000;stroke-width:3.74331;stroke-linecap:butt;stroke-linejoin:miter;stroke-miterlimit:4;stroke-dasharray:none;stroke-opacity:1" d="M380.85 260.004c-7.393-11.693-52.806-6.726-64.856 4.74-14.356 19.54 1.067 29.342 13.211 28.3-.054-11.881 21.407-18.376 24.117 1.62 9.708 2.243 37.056-16.454 27.527-34.66z"/>
  <path style="display:inline;stroke-width:.728479" d="M598.865 177.535c-36.758-1.071-73.952 14.435-97 46.871-39.698 52.336-17.698 129.766-51.89 189.153-43.582 58.7-64.69 129.853-38.993 202.462l19.32 41.192c21.127 34.483 52.078 62.044 88.68 78.31 17.263 44.857 20.337 95.456 23.079 143.227-16.619-4.65-36.851 6.815-23.12 25.225-19.63-3.386-38.078 6.987-48.671 24.69-20.773 24.88-9.847 52.678 21.021 60.778 34.504 8.23 72.374-10.115 88.764-41.127 13.357-12.965 8.227-26.53-1.475-47.533 4.757-14.038-6.752-21.09-18.717-19.719 3.033-42.905 8.974-88.296 5.63-131.63 19.838 3.28 41.027 3.17 60.886-.086-3.366 43.013 2.514 87.933 5.547 130.474-12.09-1.242-23.91 5.358-19.092 19.76-9.7 21.046-14.894 34.526-1.475 47.557 16.39 30.99 54.26 49.335 88.764 41.105 30.827-8.1 41.816-35.876 21.002-60.78-10.595-17.724-29.041-28.074-48.672-24.689 13.585-18.002-6.044-29.897-22.558-25.267 2.72-47.407 5.898-97.47 23.015-142.006 35.689-15.58 67.929-44.212 88.535-78.438l19.153-41.427c20.731-61.423 10.303-133.283-27.815-185.383-15.019-20.896-24.181-42.692-29.935-64.123-14.562-47.727-1.58-92.84-29.602-136.002-21.303-33.873-57.623-51.522-94.38-52.594z" clip-path="url(#c)" transform="translate(-5.225 -110.809)"/>
  <path fill="#fff" d="m184.976 1292.933 7.125-.695c48.225-1.274-.753 37.508-30.673 26.068-20.825-4.142-24.764-25.517.29-22.418-1.535 12.744 10.514 18.798 20.42 11.035 3.273-1.97 2.2-10.862 2.838-13.99zm-15.553 69.63a5.823 5.823 0 0 1-7.965 1.97c-9.037-10.457 13.844-26.562 20.275-33.455-13.18 1.448-30.21-1.129-40.028-9.47-6.286 13.178-9.674 28.47-10.282 33.395 28.037 45.618 65.343 75.567 121.62 64.618 34.525-9.123 47.154-35.915 22.418-64.532-8.052-13.207-20.796-23.605-34.381-27.226-28.617-7.386-56.712 9.298-71.657 34.7zm-133.12-67.95c-10.05-1.593-34.38-3.968-25.72 12.918 12.977 15.698 44.374 18.595 60.767 6.836 8.08-5.822 5.445-19.117-5.59-16.423a39.967 39.967 0 0 1-6.431-.347c.61 19.29-26.124 15.987-23.025-2.984zm2.492 38.087c6.372 6.894 29.34 22.997 20.246 33.453-10.137 5.272-21.781-33.714-54.83-37.305-23.866-5.127-46.313 6.777-59.173 27.863-7.733 11.76-17.35 26.387-12.802 37.045 30.296 55.785 123.415 25.894 146.818-23.605 2.954-4.113 6.025-8.37 10.02-13.527-.578-4.924-3.996-20.217-10.281-33.424-9.818 8.371-26.848 10.948-39.998 9.5zm236.665 22.39c-8.052-13.208-20.796-23.606-34.381-27.227-28.616-7.386-56.711 9.297-71.656 34.7a5.823 5.823 0 0 1-7.965 1.97c-9.037-10.457 13.844-26.562 20.275-33.455-13.18 1.448-30.21-1.129-40.028-9.47-6.286 13.178-9.674 28.47-10.282 33.395 28.037 45.618 65.343 75.567 121.62 64.618 34.524-9.123 47.152-35.915 22.417-64.532zM78.795 1323.2c-9.82 8.37-26.85 10.948-40 9.5 6.373 6.894 29.34 22.997 20.247 33.453-10.137 5.272-21.781-33.714-54.83-37.305-23.866-5.127-46.313 6.777-59.173 27.863-7.733 11.76-17.35 26.387-12.802 37.045 30.296 55.785 123.415 25.894 146.818-23.605 2.954-4.113 6.025-8.37 10.02-13.527-.578-4.924-3.995-20.217-10.28-33.424z" style="display:inline;fill:#f9f9f9;fill-opacity:1" clip-path="url(#d)" transform="matrix(.73795 0 0 .76113 509.456 -211.001)"/>
  <path fill="#fff" d="M130.121-117.044c-5.566-1.204-6.27 5.685-9.08 3.02-3.157-2.895-7.009-3.185-9.703-2.924-7.734.637-16.322 7.188-14.7 15.327 7.245 17.093 29.187 11.108 36.673 4.428 5.3-4.73 5.386-6.483 4.437-10.73-.95-4.247-2.06-7.917-7.627-9.121z" style="display:inline;fill:#fff9f9;fill-opacity:1" clip-path="url(#e)" transform="translate(475.144 654.961)"/>
  <path fill="#925a32" d="M744.804 322.437c-55.039-69.928-25.072-137.15-60.91-202.4-40.478-63.672-137.734-66.378-181.561-5.391-39.25 53.063-16.531 129.853-52.326 190.104-158.525 193.09 94.097 443.814 275.32 272.566 67.225-65.338 75.766-179.712 19.477-254.879Zm-26.449 244.076C563.517 723.34 313.99 506.717 444.751 328.975c73.921-83.762-8.096-228.293 148.712-245.678 33.02.412 66.844 20.957 88.673 53.496 14.709 22.19 11.805 45.42 13.373 69.213 3.073 44.447 9.007 80.363 34.608 116.107 63.262 81.813 53.449 175.707-11.762 244.4zm-127.097 13.055c-16.57-.304-31.263-3.416-44.112-8.673 11.07-1.51 22.032-4.73 32.636-9.555 3.259 1.49 6.868 2.3 10.841 2.251 15.867.194 26.037-13.086 30.519-30.171 38.622-34.908 54.736-82.602 62.596-133.816 42.051 66.885 11.211 178.093-92.48 179.964z" style="display:inline;stroke-width:.739542"/>
  <path fill="#a36a3c" d="M594.746 499.987c28.614-.346 28.956 15.86 26.503 33.98 38.98-34.8 55.244-82.348 63.177-133.403-17.951-28.202-49.06-48.502-93.337-49.304-132.237 2.376-147.067 178.629-44.523 220.066 11.172-1.505 22.237-4.716 32.94-9.525-23.613-19.562-15.838-63.456 15.24-61.814zm-18.364-46.713c8.17-8.158 29.518-7.942 33.283 4.921-1.112 14.354-18.631 5.87-26.823 8.828-8.706-.152-11.25-8.007-6.46-13.749zm-46.128-17.046c.49-7.673 1.821-7.596 6.822-15.784 10.759-10.079 23.89 2.714 24.832 11.85 7.914 34.966-33.809 37.625-31.654 3.934zm87.81-1.25c.49-7.674 1.82-7.597 6.821-15.784 10.76-10.08 23.891 2.713 24.833 11.85 7.914 34.965-33.809 37.624-31.654 3.933z" style="display:inline;stroke-width:.741826"/>
  <ellipse style="display:inline;fill:#fff;fill-opacity:1;stroke:none;stroke-width:6.08063;stroke-linejoin:miter;stroke-miterlimit:4;stroke-dasharray:none;stroke-opacity:1" cx="632.93" cy="429.51" rx="7.797" ry="8.674"/>
  <ellipse style="display:inline;fill:#fff;fill-opacity:1;stroke:none;stroke-width:6.08063;stroke-linejoin:miter;stroke-miterlimit:4;stroke-dasharray:none;stroke-opacity:1" cx="546.153" cy="430.924" rx="7.797" ry="8.674"/>
  <path fill="#c6cb6a" d="M736.69 351.17a219.247 219.247 0 0 0-14.388-20.496c-25.865-35.152-33.239-72.77-36.342-118.441-1.51-22.04 1.253-44.504-11.944-63.716-41.295-62.59-120.526-64.078-164.88-4.846-29.244 51.05-10.372 115.445-42.464 170.596-105.66 112.21-31.67 256.01 78.365 289.005 52.442 15.725 113.07 6.288 166.34-43.746 56.944-58.902 69.744-136.672 25.314-208.356zm-146.794-6.511c159.164 2.847 159.164 239.37 0 242.218-159.14-2.826-159.183-239.35 0-242.218z" style="display:inline;stroke-width:.733768"/>
</svg>